<?xml version="1.0" encoding="UTF-8" standalone="no"?>
<!DOCTYPE svg PUBLIC "-//W3C//DTD SVG 1.1//EN" "http://www.w3.org/Graphics/SVG/1.1/DTD/svg11.dtd">
<svg version="1.1" xmlns="http://www.w3.org/2000/svg" xmlns:xlink="http://www.w3.org/1999/xlink" preserveAspectRatio="xMidYMid meet" viewBox="0 0 500.031 500.031" width="500.03" height="500.03"><defs><path d="M250.02 63.54L250.02 63.54L65.87 129.55L93.96 374.29L250.02 461.17L250.02 461.17L250.02 461.17L406.07 374.29L434.16 129.55L250.02 63.54L250.02 63.54Z" id="b2jEjS9Y0k"></path><path d="M250.02 107.68L250.02 107.48L250.02 308.88L250.02 308.88L250.02 461.17L250.02 461.17L407.07 374.29L435.33 129.55L250.02 63.54L250.02 63.54L250.02 107.68Z" id="jhWYtD4UI"></path><path d="M288.44 283.4L250.2 190.65L178.59 363.32L136.05 363.32L250.01 107.34L333.48 294.81L288.44 283.4ZM373.74 356.39L219.35 311.35L232.52 278.17L377.02 322.75L373.74 356.39Z" id="acJCvp0My"></path></defs><g><g><g><use xlink:href="#b2jEjS9Y0k" opacity="1" fill="#dd0031" fill-opacity="1"></use><g><use xlink:href="#b2jEjS9Y0k" opacity="1" fill-opacity="0" stroke="#000000" stroke-width="1" stroke-opacity="0"></use></g></g><g><use xlink:href="#jhWYtD4UI" opacity="1" fill="#c3002f" fill-opacity="1"></use><g><use xlink:href="#jhWYtD4UI" opacity="1" fill-opacity="0" stroke="#000000" stroke-width="1" stroke-opacity="0"></use></g></g><g><use xlink:href="#acJCvp0My" opacity="1" fill="#ffffff" fill-opacity="1"></use></g></g></g></svg>